<?xml version="1.0" encoding="UTF-8"?>
<svg id="Layer_2" data-name="Layer 2" xmlns="http://www.w3.org/2000/svg" viewBox="0 0 504.25 488">
  <defs>
    <style>
      .cls-1 {
        fill: #fff;
      }

      .cls-1, .cls-2 {
        stroke-width: 0px;
      }

      .cls-2 {
        fill: #e14f46;
      }
    </style>
  </defs>
  <g id="Layer_2-2" data-name="Layer 2">
    <g id="Layer_1-2" data-name="Layer 1-2">
      <g>
        <path class="cls-1" d="M352.41,395.47v15.95h68.4v-18.02h-66.32c-1.14,0-2.07.93-2.07,2.07h0Z"/>
        <path class="cls-1" d="M352.41,483.7c0,1.14.93,2.07,2.07,2.07h66.32v-18.02h-68.4v15.95h0Z"/>
        <rect class="cls-1" x="352.41" y="430.05" width="62.48" height="18.02"/>
        <path class="cls-1" d="M16.08,393.46H2.23c-1.18,0-2.14.96-2.14,2.14l-.09,87.34c0,1.18.96,2.15,2.14,2.15h13.94c1.18,0,2.14-.96,2.14-2.14v-87.33c0-1.18-.96-2.14-2.14-2.14v-.02Z"/>
        <path class="cls-1" d="M90.82,401.06c-14.21-13.24-36.35-13.29-50.65.43-7.09,6.81-10.95,15.2-11.46,24.94v.15c-.08,10.62-.09,43.05-.09,56.32,0,1.18.96,2.14,2.14,2.14h13.76c1.18,0,2.14-.96,2.14-2.14v-56.17c.37-4.92,2.34-8.99,6.02-12.41,7.23-6.74,18.26-6.88,25.54-.47,7.69,6.77,6.71,13.9,6.6,22.47v46.57c0,1.18.96,2.14,2.14,2.14h13.68c1.18,0,2.14-.96,2.14-2.14v-54.63c0-10.49-4.14-19.89-11.98-27.2h.02Z"/>
        <path class="cls-1" d="M177.28,393.32h-29.54c-3.8,0-7.61.57-11.24,1.7-7.78,2.43-14.66,7.45-19.36,14.11-6.86,9.73-6.79,18.44-6.79,25.88s-.69,14.92,1.12,22.05c2.01,7.93,6.66,15.09,13.08,20.16,6.58,5.2,14.82,8.01,23.19,8.01h29.54c1.18,0,2.14-.96,2.14-2.14v-13.84c0-1.18-.96-2.14-2.14-2.14h-29.54c-9.8,0-17.71-6.98-19.13-16.44-.24-1.42-.34-20.77,0-22.83,1.39-9.13,9.18-16.4,19.12-16.4h29.54c1.18,0,2.14-.96,2.14-2.14v-13.84c0-1.18-.96-2.14-2.14-2.14h.01Z"/>
        <path class="cls-1" d="M258.65,393.25h-13.93c-1.18,0-2.14.96-2.14,2.14v56.72c-.38,4.97-2.36,9.07-6.07,12.53-7.3,6.8-18.43,6.94-25.79.47-7.76-6.84-6.77-14.03-6.67-22.69v-47.03c0-1.18-.96-2.14-2.14-2.14h-13.84c-1.18,0-2.14.96-2.14,2.14v55.16c0,10.59,4.18,20.08,12.09,27.46,14.34,13.36,36.69,13.42,51.12-.43,7.16-6.87,11.05-15.34,11.57-25.17v-.15c.08-10.72.09-43.49.09-56.87,0-1.18-.96-2.14-2.14-2.14h0Z"/>
        <path class="cls-1" d="M336.07,432.95c6.81-9.21,6.66-22.91-2.59-32.09-4.86-4.83-10.75-7.27-17.51-7.27h-42.67c-1.18,0-2.14.96-2.14,2.14v87.38c0,1.18.96,2.14,2.14,2.14,52.11,0,40.93.04,45.68-.09v-.05c6.97-.64,13.08-3.54,18.21-8.64,10.23-10.17,11.04-24.83,5.29-35.28-1.73-3.14-3.88-5.91-6.41-8.25h0ZM289.37,411.63h27.6l.02-.02c7.84,1.08,7.59,12.78-.25,13.61,0,0-14.96.03-27.37.02v-13.6h0ZM289.37,467.04v-23.68h26.6c15.84,0,16.01,23.68-.26,23.68"/>
        <path class="cls-1" d="M501.86,467.15h-55.04l51.41-43.75c5.5-4.68,7.44-12.08,4.95-18.85-2.49-6.77-8.77-11.15-15.98-11.15h-51.34c-1.18,0-2.14.96-2.14,2.14v13.74c0,1.18.96,2.14,2.14,2.14h48.64l-51.41,43.75c-5.5,4.68-7.44,12.08-4.95,18.85,2.49,6.77,8.77,11.15,15.98,11.15h57.74c1.18,0,2.14-.96,2.14-2.14v-13.74c0-1.18-.96-2.14-2.14-2.14Z"/>
        <path class="cls-2" d="M390.9,167.81c2.12-4.01-.46-8.88-4.97-9.38-13.2-1.45-26.12-3.6-39.12-6.4-4.04-.87-7.84,2.27-7.76,6.4.54,27.76,1.07,55.52,1.61,83.28.13,6.79,9.36,8.77,12.24,2.62,12.08-25.8,24.71-51.31,38.01-76.52h0Z"/>
        <polygon class="cls-2" points="402.95 39.06 232.17 0 106.38 69.26 295.08 116.04 402.95 39.06"/>
        <g>
          <polygon class="cls-2" points="290.65 351.08 290.65 351.08 290.65 351.09 290.65 351.08"/>
          <path class="cls-2" d="M285.29,134.94l-184-44.66,18.65,186.78,170.71,74.02-5.36-216.14ZM145.83,261.82c-3.01-1.29-4.52-1.94-7.53-3.24-1.29-.55-2.55-3.16-2.81-5.83-3.91-39.05-7.82-78.1-11.73-117.15-.27-2.66.64-4.54,2.02-4.2h.01c3.21.79,4.82,1.18,8.03,1.97,1.38.34,2.71,2.81,2.95,5.51,3.65,39.68,7.29,79.36,10.94,119.04.25,2.7-.59,4.45-1.88,3.9ZM210.82,286.04c-2.94-1.26-4.41-1.9-7.36-3.16-1.29-.55-2.47-3.32-2.65-6.18-1.39-22.42-2.78-44.84-4.18-67.26-.72-12.72-.66-23.19-6.75-34.75-5.77-10.95-13.66-12.77-18.04-4.46-2.2,4.17-3.13,9.53-2.86,16.42,0,.16.02.33.03.5,2.07,26.25,4.14,52.5,6.2,78.75.22,2.77-.65,4.57-1.93,4.02-2.97-1.27-4.45-1.91-7.42-3.19-1.28-.55-2.52-3.21-2.76-5.93-2.26-25.99-4.53-51.99-6.73-77.99,0-.08,0-.12-.01-.21-.85-13.71.84-24.82,5.11-33.25h0c8.62-17,24.83-13.63,36.18,8.78,6.26,12.37,9.95,27.43,10.81,43.26,1.46,26.8,2.93,53.6,4.39,80.4.16,2.9-.76,4.81-2.04,4.25ZM268.38,308.42c-7.54-3.25-11.31-4.87-18.86-8.11-5.6-2.41-11.28-9.16-16.07-18.97-4.68-9.57-8.38-21.71-10.37-34.27-1.79-11.3-1.92-22.68-2.49-33.76-.58-11.29-1.35-24.46,2.8-37.96h0c2.84-9.26,7.42-15.71,12.86-18.09,2.54-1.11,5.24-1.33,7.98-.66,8.12,1.99,12.18,2.98,20.29,4.97,1.38.34,2.57,3.11,2.64,6.19.18,7.15.27,10.73.45,17.88.08,3.08-.97,5.27-2.33,4.89-8-2.24-12.01-3.35-20.01-5.59-7.06-1.97-12.1,7.7-12.45,21.46-.1,3.11,1.29,32.92,1.55,35.16,1.63,14.92,7.46,27.8,14.1,30.41,7.66,3,11.48,4.49,19.14,7.49,1.31.51,2.43,3.42,2.5,6.5.18,7.15.27,10.73.45,17.88.08,3.08-.9,5.13-2.19,4.58Z"/>
        </g>
      </g>
    </g>
  </g>
</svg>