<?xml version="1.0" encoding="UTF-8"?>
<svg id="Layer_2" data-name="Layer 2" xmlns="http://www.w3.org/2000/svg" viewBox="0 0 926 225.47">
  <defs>
    <style>
      .cls-1 {
        fill: #fff;
      }
    </style>
  </defs>
  <g id="Layer_1-2" data-name="Layer 1">
    <g>
      <path class="cls-1" d="M594.19,3.16h-94.47c-1.11,0-2.01,.9-2.01,2.01V28.58h96.48V3.16Z"/>
      <path class="cls-1" d="M499.71,133.45h94.47v-25.42h-96.48v23.42c0,1.11,.9,2.01,2.01,2.01Z"/>
      <rect class="cls-1" x="497.71" y="54.86" width="88.13" height="25.42"/>
      <path class="cls-1" d="M23.28,3.24H3.75c-1.67,0-3.02,1.35-3.02,3.02l-.13,123.19c0,1.67,1.35,3.03,3.02,3.03H23.28c1.67,0,3.02-1.35,3.02-3.02V6.27c0-1.67-1.35-3.02-3.02-3.02Z"/>
      <path class="cls-1" d="M145.6,129.38V52.32c0-14.79-5.84-28.06-16.9-38.36-20.04-18.67-51.27-18.75-71.44,.6-10.01,9.6-15.45,21.44-16.16,35.18v.21c-.11,14.97-.13,60.73-.13,79.44,0,1.67,1.35,3.01,3.02,3.01h19.41c1.67,0,3.02-1.35,3.02-3.02V50.15c.52-6.94,3.3-12.67,8.49-17.51,10.2-9.51,25.75-9.7,36.03-.66,10.85,9.55,9.46,19.61,9.31,31.7v65.7c0,1.67,1.35,3.02,3.02,3.02h19.29c1.67,0,3.02-1.35,3.02-3.02Z"/>
      <path class="cls-1" d="M250.67,3.05h-41.67c-5.37,0-10.73,.8-15.86,2.4-10.98,3.43-20.68,10.5-27.31,19.91-9.67,13.72-9.58,26.02-9.58,36.51s-.97,21.04,1.58,31.11c2.83,11.19,9.39,21.29,18.45,28.44,9.28,7.33,20.9,11.3,32.72,11.3h41.67c1.67,0,3.02-1.35,3.02-3.02v-19.53c0-1.67-1.35-3.02-3.02-3.02h-41.67c-13.82,0-24.98-9.85-26.99-23.19-.33-2.01-.48-29.29,0-32.21,1.96-12.88,12.94-23.13,26.98-23.13h41.67c1.67,0,3.02-1.35,3.02-3.02V6.07c0-1.67-1.35-3.02-3.02-3.02Z"/>
      <path class="cls-1" d="M365.44,2.94h-19.66c-1.67,0-3.02,1.35-3.02,3.02V85.98c-.53,7.01-3.33,12.79-8.57,17.67-10.3,9.6-25.99,9.79-36.37,.66-10.95-9.64-9.55-19.8-9.41-32V5.97c0-1.67-1.35-3.02-3.02-3.02h-19.53c-1.67,0-3.02,1.35-3.02,3.02V83.77c0,14.94,5.9,28.33,17.06,38.73,20.23,18.85,51.76,18.93,72.11-.61,10.1-9.69,15.59-21.64,16.32-35.51v-.21c.11-15.12,.13-61.35,.13-80.22,0-1.67-1.35-3.01-3.02-3.01Z"/>
      <path class="cls-1" d="M474.65,58.94c9.6-12.99,9.4-32.31-3.65-45.27-6.85-6.81-15.16-10.26-24.7-10.26h-60.19c-1.67,0-3.02,1.35-3.02,3.02v123.26c0,1.67,1.36,3.02,3.02,3.02,73.51,0,57.74,.05,64.44-.12v-.07c9.83-.9,18.46-4.99,25.69-12.19,14.43-14.35,15.57-35.02,7.46-49.77-2.44-4.43-5.48-8.33-9.04-11.63Zm-65.87-30.08h38.93l.03-.03c11.06,1.53,10.71,18.02-.35,19.19,0,0-21.1,.04-38.61,.03V28.86Zm37.15,78.16h-37.15v-33.4h37.52c22.34,0,22.59,33.4-.37,33.4Z"/>
      <path class="cls-1" d="M711.54,129.58v-19.38c0-1.67-1.35-3.02-3.02-3.02h-77.64l72.52-61.71c7.75-6.6,10.49-17.04,6.98-26.59-3.52-9.55-12.36-15.73-22.54-15.73h-72.41c-1.67,0-3.02,1.35-3.02,3.02V25.56c0,1.67,1.35,3.02,3.02,3.02h68.61l-72.52,61.71c-7.75,6.6-10.49,17.03-6.98,26.59,3.52,9.55,12.36,15.73,22.55,15.73h81.45c1.67,0,3.02-1.35,3.02-3.02Z"/>
      <path class="cls-1" d="M915.91,98.76c-7.82-.86-15.49-2.13-23.19-3.8-2.4-.52-4.65,1.34-4.6,3.8,.32,16.46,.64,32.91,.96,49.37,.08,4.03,5.55,5.2,7.25,1.55,7.16-15.29,14.65-30.41,22.53-45.36,1.26-2.38-.27-5.27-2.95-5.56Z"/>
      <polygon class="cls-1" points="750.19 45.9 862.05 73.63 926 28 824.76 4.85 750.19 45.9"/>
      <path class="cls-1" d="M747.18,58.36l11.06,110.73,101.2,43.88-3.18-128.13-109.08-26.47Zm26.41,101.68c-1.79-.77-2.68-1.15-4.46-1.92-.76-.33-1.51-1.87-1.67-3.45-2.32-23.15-4.64-46.3-6.95-69.45-.16-1.58,.38-2.69,1.2-2.49,1.9,.47,2.86,.7,4.76,1.17,.82,.2,1.6,1.66,1.75,3.27,2.16,23.52,4.32,47.04,6.49,70.57,.15,1.6-.35,2.64-1.11,2.31Zm38.52,14.37c-1.74-.75-2.62-1.12-4.36-1.87-.76-.33-1.47-1.97-1.57-3.66-.83-13.29-1.65-26.58-2.48-39.87-.43-7.54-.39-13.75-4-20.6-3.42-6.49-8.1-7.57-10.69-2.65-1.3,2.47-1.85,5.65-1.7,9.73,0,.1,0,.2,.02,.3,1.23,15.56,2.45,31.12,3.68,46.68,.13,1.64-.38,2.71-1.15,2.38-1.76-.76-2.64-1.13-4.4-1.89-.76-.33-1.49-1.9-1.63-3.52-1.34-15.41-2.68-30.82-3.99-46.23,0-.05,0-.07,0-.12-.5-8.13,.5-14.71,3.03-19.71,5.11-10.08,14.72-8.08,21.45,5.21,3.71,7.33,5.9,16.26,6.41,25.64,.87,15.89,1.74,31.78,2.6,47.66,.09,1.72-.45,2.85-1.21,2.52Zm34.13,13.26c-4.47-1.92-6.71-2.89-11.18-4.81-3.32-1.43-6.69-5.43-9.53-11.24-2.77-5.67-4.97-12.87-6.15-20.32-1.06-6.7-1.14-13.45-1.48-20.01-.35-6.69-.8-14.5,1.66-22.5,1.69-5.49,4.4-9.31,7.62-10.72,1.51-.66,3.11-.79,4.73-.39,4.81,1.18,7.22,1.77,12.03,2.95,.82,.2,1.52,1.84,1.57,3.67,.11,4.24,.16,6.36,.27,10.6,.04,1.83-.57,3.12-1.38,2.9-4.74-1.33-7.12-1.99-11.86-3.31-4.18-1.17-7.17,4.57-7.38,12.72-.06,1.84,.77,19.51,.92,20.84,.96,8.84,4.42,16.48,8.36,18.03,4.54,1.78,6.81,2.66,11.35,4.44,.77,.3,1.44,2.03,1.48,3.85,.11,4.24,.16,6.36,.26,10.6,.05,1.83-.53,3.04-1.3,2.71Z"/>
      <rect class="cls-1" y="171.57" width="4.96" height="40.89"/>
      <path class="cls-1" d="M31.78,188.42l-.13-2.09c-.24,.44-.47,.91-.67,1.41l.81,.68Z"/>
      <path class="cls-1" d="M48.14,182.13c-1.82-.84-3.84-1.27-6.07-1.27-1.57,0-3.09,.23-4.55,.68-1.47,.46-2.76,1.19-3.87,2.2-.78,.7-1.43,1.57-1.99,2.59l.13,2.09-.81-.68c.2-.5,.43-.97,.67-1.41l-.3-4.85h-4.34v30.98h4.96v-16.48c0-2.64,.49-4.75,1.46-6.32,.97-1.57,2.2-2.7,3.69-3.41,1.49-.7,2.97-1.05,4.46-1.05,2.15,0,3.96,.67,5.42,2.01,1.47,1.34,2.2,3.73,2.2,7.16v18.09h4.96v-19.83c0-2.68-.55-4.89-1.64-6.63-1.09-1.74-2.55-3.03-4.37-3.87Z"/>
      <path class="cls-1" d="M98.57,188.73c-.14-.68-.36-1.31-.63-1.92l-.11,1.92h.74Z"/>
      <path class="cls-1" d="M97.64,203.97v3.38c.41-.84,.71-1.75,.87-2.76l-.87-.62Z"/>
      <path class="cls-1" d="M97.94,186.81c.27,.6,.49,1.24,.63,1.92h-.74l.11-1.92c-.37-.82-.84-1.58-1.45-2.26-1.05-1.18-2.32-2.09-3.81-2.73-1.49-.64-3.1-.96-4.83-.96-2.56,0-4.95,.63-7.19,1.89-2.23,1.26-4.03,3.09-5.39,5.48-1.36,2.4-2.04,5.31-2.04,8.74s.64,6.23,1.92,8.64c1.28,2.42,2.99,4.27,5.14,5.54,2.15,1.28,4.5,1.92,7.06,1.92,1.78,0,3.46-.33,5.05-.99,1.59-.66,2.93-1.62,4.03-2.88,.49-.56,.88-1.18,1.21-1.85v-3.38l.87,.62c-.16,1.01-.46,1.92-.87,2.76v18.12h4.96v-43.98h-4.34l-.32,5.33Zm-1.54,16.32c-.83,1.8-1.97,3.18-3.44,4.15-1.47,.97-3.17,1.46-5.11,1.46-3.06,0-5.43-1.07-7.12-3.22s-2.54-5-2.54-8.55,.87-6.4,2.6-8.55c1.73-2.15,4.13-3.22,7.19-3.22,1.94,0,3.63,.45,5.08,1.36,1.44,.91,2.57,2.22,3.37,3.93,.81,1.71,1.21,3.81,1.21,6.29s-.41,4.55-1.24,6.35Z"/>
      <path class="cls-1" d="M145.77,198.33c0,1.82-.26,3.39-.77,4.71-.52,1.32-1.22,2.41-2.11,3.25-.89,.85-1.89,1.47-3,1.86-1.12,.39-2.25,.59-3.41,.59-2.48,0-4.4-.59-5.76-1.77-1.36-1.18-2.04-3.33-2.04-6.47v-19.02h-4.96v20.32c0,2.68,.55,4.86,1.64,6.54,1.09,1.67,2.52,2.88,4.27,3.62,1.75,.74,3.62,1.11,5.61,1.11,2.48,0,4.64-.42,6.48-1.27,1.84-.84,3.29-2.2,4.37-4.06l.31,4.71h4.34v-30.98h-4.96v16.85Z"/>
      <rect class="cls-1" x="172.16" y="181.48" width="4.96" height="30.98"/>
      <path class="cls-1" d="M174.64,168.1c-1.12,0-2.01,.34-2.7,1.02-.68,.68-1.02,1.58-1.02,2.7s.34,2.01,1.02,2.7,1.58,1.02,2.7,1.02,2.01-.34,2.7-1.02c.68-.68,1.02-1.58,1.02-2.7s-.34-2.01-1.02-2.7-1.58-1.02-2.7-1.02Z"/>
      <path class="cls-1" d="M214.23,195.73l-7.74-1.61c-1.69-.33-2.85-.88-3.47-1.64-.62-.76-.93-1.6-.93-2.51s.28-1.72,.84-2.45c.56-.72,1.36-1.29,2.42-1.7,1.05-.41,2.32-.62,3.81-.62,1.69,0,3.32,.42,4.89,1.27s2.7,2.18,3.41,4l4.15-2.73c-1.03-2.19-2.6-3.88-4.71-5.08-2.1-1.2-4.69-1.8-7.74-1.8-2.44,0-4.55,.42-6.35,1.27-1.8,.85-3.18,1.97-4.15,3.38-.97,1.4-1.46,2.95-1.46,4.65,0,2.15,.65,3.95,1.95,5.39,1.3,1.45,3.46,2.48,6.48,3.1l7.43,1.55c1.57,.33,2.63,.86,3.19,1.58,.56,.72,.84,1.52,.84,2.39,0,1.36-.62,2.47-1.86,3.32-1.24,.85-2.95,1.27-5.14,1.27-2.48,0-4.59-.54-6.35-1.61-1.76-1.07-3.09-2.56-4-4.46l-4.21,3.04c1.36,2.35,3.32,4.17,5.85,5.45,2.54,1.28,5.32,1.92,8.33,1.92,2.44,0,4.58-.39,6.44-1.18,1.86-.78,3.3-1.91,4.34-3.38,1.03-1.47,1.55-3.17,1.55-5.11s-.58-3.51-1.73-4.83c-1.16-1.32-3.18-2.27-6.07-2.85Z"/>
      <path class="cls-1" d="M243.59,168.1c-1.12,0-2.01,.34-2.7,1.02s-1.02,1.58-1.02,2.7,.34,2.01,1.02,2.7c.68,.68,1.58,1.02,2.7,1.02s2.01-.34,2.7-1.02,1.02-1.58,1.02-2.7-.34-2.01-1.02-2.7c-.68-.68-1.58-1.02-2.7-1.02Z"/>
      <rect class="cls-1" x="241.12" y="181.48" width="4.96" height="30.98"/>
      <rect class="cls-1" x="269.86" y="181.48" width="4.96" height="4.27"/>
      <path class="cls-1" d="M282.56,207.81c-.87,.41-1.9,.62-3.1,.62-1.36,0-2.48-.37-3.35-1.12-.87-.74-1.3-1.88-1.3-3.41v-18.15h-4.96v19.02c.04,1.98,.46,3.58,1.27,4.8,.81,1.22,1.89,2.11,3.25,2.66,1.36,.56,2.83,.84,4.4,.84,1.69,0,3.19-.25,4.49-.74,1.3-.49,2.42-1.18,3.38-2.04l-1.74-4.15c-.7,.7-1.49,1.26-2.35,1.67Z"/>
      <polygon class="cls-1" points="274.82 172.69 269.86 174.05 269.86 181.48 274.82 181.48 274.82 172.69"/>
      <rect class="cls-1" x="274.82" y="181.48" width="11.28" height="4.27"/>
      <rect class="cls-1" x="263.66" y="181.48" width="6.2" height="4.27"/>
      <rect class="cls-1" x="303.38" y="181.48" width="4.96" height="30.98"/>
      <path class="cls-1" d="M305.85,168.1c-1.12,0-2.01,.34-2.7,1.02-.68,.68-1.02,1.58-1.02,2.7s.34,2.01,1.02,2.7,1.58,1.02,2.7,1.02,2.01-.34,2.7-1.02c.68-.68,1.02-1.58,1.02-2.7s-.34-2.01-1.02-2.7-1.58-1.02-2.7-1.02Z"/>
      <polygon class="cls-1" points="340.17 207.44 330.39 181.48 324.75 181.48 337.64 212.46 342.59 212.46 355.48 181.48 350.27 181.48 340.17 207.44"/>
      <path class="cls-1" d="M391.94,182.72c-2.05-1.24-4.51-1.86-7.4-1.86s-5.39,.64-7.62,1.92c-2.23,1.28-3.99,3.13-5.26,5.54-1.28,2.42-1.92,5.3-1.92,8.64s.64,6.23,1.92,8.64c1.28,2.42,3.07,4.27,5.36,5.54,2.29,1.28,4.9,1.92,7.84,1.92,2.02,0,3.85-.28,5.48-.84,1.63-.56,3.06-1.35,4.27-2.39,1.22-1.03,2.22-2.25,3.01-3.65l-3.9-2.29c-.87,1.49-2.01,2.66-3.44,3.53-1.43,.87-3.27,1.3-5.54,1.3-2.11,0-3.92-.46-5.42-1.39-1.51-.93-2.68-2.28-3.5-4.06-.66-1.42-1.04-3.06-1.18-4.9h-1.67v-4.4h1.85c.2-1.24,.51-2.37,.97-3.37,.81-1.75,1.94-3.1,3.41-4.03,1.46-.93,3.21-1.39,5.23-1.39,2.64,0,4.78,.8,6.41,2.42,1.54,1.52,2.34,3.65,2.43,6.38h2.56l-2.54,.5c0-.17-.01-.33-.02-.5h-18.45c-.15,.93-.24,1.91-.24,2.97,0,.49,.03,.96,.06,1.42h23.35c.08-.45,.14-.97,.19-1.55,.04-.58,.06-1.22,.06-1.92,0-2.64-.54-5.03-1.61-7.16-1.08-2.13-2.63-3.81-4.68-5.05Z"/>
      <path class="cls-1" d="M374.8,194h-1.85v4.4h1.67c-.03-.46-.06-.93-.06-1.42,0-1.06,.09-2.05,.24-2.97Z"/>
      <path class="cls-1" d="M395.81,194h-2.56c0,.17,.02,.33,.02,.5l2.54-.5Z"/>
      <path class="cls-1" d="M468.29,190.78l-8.86-1.98c-2.73-.62-4.54-1.48-5.45-2.57-.91-1.09-1.36-2.36-1.36-3.81,0-1.28,.33-2.43,.99-3.44,.66-1.01,1.71-1.83,3.13-2.45,1.43-.62,3.23-.93,5.42-.93,2.73,0,5.05,.55,6.97,1.64s3.65,2.96,5.17,5.61l4.15-3.22c-1.74-2.85-3.9-5.01-6.51-6.47-2.6-1.47-5.7-2.2-9.29-2.2-3.14,0-5.85,.56-8.15,1.67-2.29,1.12-4.05,2.59-5.26,4.43-1.22,1.84-1.83,3.85-1.83,6.04,0,1.61,.34,3.11,1.02,4.49,.68,1.38,1.8,2.58,3.34,3.59,1.55,1.01,3.58,1.81,6.1,2.39l9.6,2.17c2.4,.54,4.03,1.33,4.9,2.39,.87,1.05,1.3,2.24,1.3,3.56,0,1.44-.41,2.67-1.24,3.68-.83,1.01-2.01,1.78-3.56,2.29-1.55,.52-3.38,.77-5.48,.77-2.27,0-4.28-.33-6.04-.99-1.76-.66-3.25-1.59-4.49-2.79-1.24-1.2-2.25-2.58-3.04-4.15l-4.34,3.53c1.03,1.69,2.35,3.22,3.96,4.59,1.61,1.36,3.54,2.45,5.79,3.25,2.25,.81,4.86,1.21,7.84,1.21,3.18,0,5.95-.49,8.3-1.49,2.35-.99,4.18-2.38,5.48-4.18,1.3-1.8,1.95-3.85,1.95-6.16,0-2.6-.77-4.78-2.32-6.54-1.55-1.75-4.28-3.07-8.21-3.93Z"/>
      <polygon class="cls-1" points="505.52 172.69 500.57 174.05 500.57 181.48 505.52 181.48 505.52 172.69"/>
      <rect class="cls-1" x="500.57" y="181.48" width="4.96" height="4.27"/>
      <path class="cls-1" d="M513.27,207.81c-.87,.41-1.9,.62-3.1,.62-1.36,0-2.48-.37-3.35-1.12-.87-.74-1.3-1.88-1.3-3.41v-18.15h-4.96v19.02c.04,1.98,.46,3.58,1.27,4.8,.8,1.22,1.89,2.11,3.25,2.66,1.36,.56,2.83,.84,4.4,.84,1.69,0,3.19-.25,4.49-.74,1.3-.49,2.43-1.18,3.38-2.04l-1.74-4.15c-.7,.7-1.49,1.26-2.35,1.67Z"/>
      <rect class="cls-1" x="494.37" y="181.48" width="6.2" height="4.27"/>
      <rect class="cls-1" x="505.52" y="181.48" width="11.28" height="4.27"/>
      <path class="cls-1" d="M554.68,182.78c-2.25-1.28-4.84-1.92-7.78-1.92s-5.47,.64-7.74,1.92c-2.27,1.28-4.05,3.13-5.33,5.54-1.28,2.42-1.92,5.3-1.92,8.64s.64,6.23,1.92,8.64c1.28,2.42,3.05,4.27,5.33,5.54,2.27,1.28,4.85,1.92,7.74,1.92s5.52-.64,7.78-1.92c2.25-1.28,4.02-3.13,5.29-5.54,1.28-2.42,1.92-5.3,1.92-8.64s-.64-6.23-1.92-8.64c-1.28-2.42-3.05-4.26-5.29-5.54Zm1.05,20.51c-.81,1.78-1.95,3.14-3.44,4.09-1.49,.95-3.28,1.43-5.39,1.43s-3.9-.48-5.39-1.43c-1.49-.95-2.63-2.31-3.44-4.09-.81-1.78-1.21-3.88-1.21-6.32s.4-4.59,1.21-6.35c.81-1.75,1.95-3.11,3.44-4.06,1.49-.95,3.28-1.43,5.39-1.43s3.9,.48,5.39,1.43c1.49,.95,2.63,2.3,3.44,4.06,.8,1.75,1.21,3.87,1.21,6.35s-.4,4.54-1.21,6.32Z"/>
      <path class="cls-1" d="M595.79,180.86c-2.4,0-4.43,.48-6.1,1.43-1.67,.95-2.94,2.38-3.81,4.28l-.68-5.08h-4.03v30.98h4.96v-16.73c0-2.31,.43-4.22,1.3-5.73,.87-1.51,1.95-2.63,3.25-3.38,1.3-.74,2.59-1.12,3.87-1.12,.99,0,1.75,.04,2.29,.12,.54,.08,1.03,.21,1.49,.37l.87-4.52c-.45-.25-1-.41-1.64-.5-.64-.08-1.23-.12-1.76-.12Z"/>
      <rect class="cls-1" x="616.35" y="181.48" width="4.96" height="30.98"/>
      <path class="cls-1" d="M618.83,168.1c-1.12,0-2.01,.34-2.7,1.02-.68,.68-1.02,1.58-1.02,2.7s.34,2.01,1.02,2.7,1.58,1.02,2.7,1.02,2.01-.34,2.7-1.02,1.02-1.58,1.02-2.7-.34-2.01-1.02-2.7c-.68-.68-1.58-1.02-2.7-1.02Z"/>
      <path class="cls-1" d="M666.66,194h-2.56c0,.17,.02,.33,.02,.5l2.54-.5Z"/>
      <path class="cls-1" d="M662.79,182.72c-2.05-1.24-4.51-1.86-7.4-1.86s-5.39,.64-7.62,1.92c-2.23,1.28-3.99,3.13-5.26,5.54-1.28,2.42-1.92,5.3-1.92,8.64s.64,6.23,1.92,8.64c1.28,2.42,3.07,4.27,5.36,5.54,2.29,1.28,4.91,1.92,7.84,1.92,2.02,0,3.85-.28,5.48-.84,1.63-.56,3.06-1.35,4.27-2.39,1.22-1.03,2.22-2.25,3.01-3.65l-3.9-2.29c-.87,1.49-2.01,2.66-3.44,3.53-1.43,.87-3.27,1.3-5.54,1.3-2.11,0-3.92-.46-5.42-1.39-1.51-.93-2.68-2.28-3.5-4.06-.66-1.42-1.04-3.06-1.18-4.9h-1.67v-4.4h1.85c.2-1.24,.51-2.37,.97-3.37,.81-1.75,1.94-3.1,3.41-4.03,1.46-.93,3.21-1.39,5.23-1.39,2.64,0,4.78,.8,6.41,2.42,1.54,1.52,2.34,3.65,2.43,6.38h2.56l-2.54,.5c0-.17-.01-.33-.02-.5h-18.45c-.15,.93-.24,1.91-.24,2.97,0,.49,.03,.96,.06,1.42h23.35c.08-.45,.14-.97,.19-1.55,.04-.58,.06-1.22,.06-1.92,0-2.64-.54-5.03-1.61-7.16-1.08-2.13-2.63-3.81-4.68-5.05Z"/>
      <path class="cls-1" d="M645.65,194h-1.85v4.4h1.67c-.03-.46-.06-.93-.06-1.42,0-1.06,.09-2.05,.24-2.97Z"/>
      <path class="cls-1" d="M704.08,195.73l-7.74-1.61c-1.69-.33-2.85-.88-3.47-1.64-.62-.76-.93-1.6-.93-2.51s.28-1.72,.84-2.45c.56-.72,1.36-1.29,2.42-1.7,1.05-.41,2.32-.62,3.81-.62,1.69,0,3.32,.42,4.89,1.27s2.7,2.18,3.41,4l4.15-2.73c-1.03-2.19-2.6-3.88-4.71-5.08-2.1-1.2-4.69-1.8-7.74-1.8-2.44,0-4.55,.42-6.35,1.27-1.8,.85-3.18,1.97-4.15,3.38-.97,1.4-1.46,2.95-1.46,4.65,0,2.15,.65,3.95,1.95,5.39,1.3,1.45,3.46,2.48,6.48,3.1l7.43,1.55c1.57,.33,2.63,.86,3.19,1.58,.56,.72,.84,1.52,.84,2.39,0,1.36-.62,2.47-1.86,3.32-1.24,.85-2.95,1.27-5.14,1.27-2.48,0-4.59-.54-6.35-1.61-1.76-1.07-3.09-2.56-4-4.46l-4.21,3.04c1.36,2.35,3.32,4.17,5.85,5.45,2.54,1.28,5.32,1.92,8.33,1.92,2.44,0,4.58-.39,6.44-1.18,1.86-.78,3.3-1.91,4.34-3.38,1.03-1.47,1.55-3.17,1.55-5.11s-.58-3.51-1.73-4.83c-1.16-1.32-3.18-2.27-6.07-2.85Z"/>
    </g>
  </g>
</svg>