<?xml version="1.0" encoding="UTF-8"?>
<svg id="Layer_2" data-name="Layer 2" xmlns="http://www.w3.org/2000/svg" viewBox="0 0 926 225.47">
  <defs>
    <style>
      .cls-1 {
        fill: #e14f46;
      }

      .cls-2 {
        fill: #fff;
      }

      .cls-3 {
        fill: #323232;
      }
    </style>
  </defs>
  <g id="Layer_1-2" data-name="Layer 1">
    <g>
      <g>
        <g>
          <path class="cls-3" d="M499.71,3.16h94.47V28.58h-96.48V5.16c0-1.11,.9-2.01,2.01-2.01Z"/>
          <path class="cls-3" d="M497.71,108.03h96.48v25.42h-94.47c-1.11,0-2.01-.9-2.01-2.01v-23.42h0Z"/>
          <rect class="cls-3" x="497.71" y="54.86" width="88.13" height="25.42"/>
          <g>
            <path class="cls-3" d="M.6,129.45L.73,6.26c0-1.67,1.35-3.02,3.02-3.02H23.28c1.67,0,3.02,1.35,3.02,3.02v123.19c0,1.67-1.35,3.02-3.02,3.02H3.62c-1.67,0-3.02-1.36-3.02-3.03Z"/>
            <path class="cls-3" d="M43.99,132.4c-1.67,0-3.02-1.34-3.02-3.01,0-18.71,.02-64.47,.12-79.44v-.21c.72-13.74,6.16-25.58,16.17-35.18,20.17-19.36,51.4-19.28,71.44-.6,11.06,10.3,16.9,23.57,16.9,38.36v77.06c0,1.67-1.35,3.02-3.02,3.02h-19.29c-1.67,0-3.02-1.35-3.02-3.02V63.69c.15-12.09,1.53-22.15-9.31-31.7-10.28-9.04-25.83-8.85-36.03,.66-5.18,4.83-7.96,10.56-8.49,17.51v79.24c0,1.67-1.35,3.02-3.02,3.02h-19.41Z"/>
            <path class="cls-3" d="M208.99,132.72c-11.81,0-23.44-3.97-32.72-11.3-9.06-7.15-15.62-17.25-18.45-28.44-2.55-10.07-1.58-20.81-1.58-31.11s-.09-22.79,9.58-36.51c6.63-9.4,16.32-16.48,27.31-19.91,5.13-1.6,10.49-2.4,15.86-2.4h41.67c1.67,0,3.02,1.35,3.02,3.02V25.59c0,1.67-1.35,3.02-3.02,3.02h-41.67c-14.03,0-25.01,10.25-26.98,23.13-.49,2.91-.34,30.2,0,32.21,2.01,13.34,13.17,23.19,26.99,23.19h41.67c1.67,0,3.02,1.35,3.02,3.02v19.53c0,1.67-1.35,3.02-3.02,3.02h-41.67Z"/>
            <path class="cls-3" d="M365.44,2.94c1.67,0,3.02,1.34,3.02,3.01,0,18.87-.02,65.1-.13,80.22v.21c-.73,13.87-6.22,25.81-16.32,35.51-20.36,19.54-51.88,19.46-72.11,.61-11.16-10.4-17.06-23.79-17.06-38.73V5.97c0-1.67,1.35-3.02,3.02-3.02h19.53c1.67,0,3.02,1.35,3.02,3.02V72.31c-.15,12.21-1.54,22.36,9.41,32,10.38,9.13,26.07,8.94,36.37-.66,5.23-4.88,8.04-10.66,8.57-17.67V5.96c0-1.67,1.35-3.02,3.02-3.02h19.66Z"/>
            <path class="cls-3" d="M383.08,129.69V6.43c0-1.67,1.35-3.02,3.02-3.02h60.19c9.54,0,17.85,3.45,24.7,10.26,13.05,12.96,13.26,32.28,3.65,45.27,3.57,3.3,6.6,7.2,9.04,11.63,8.11,14.74,6.97,35.41-7.46,49.77-7.24,7.2-15.86,11.28-25.69,12.19v.07c-6.7,.18,9.07,.13-64.44,.12-1.67,0-3.02-1.35-3.02-3.02ZM447.74,28.83l-.03,.03h-38.93v19.19c17.51,0,38.61-.03,38.61-.03,11.06-1.17,11.41-17.66,.35-19.19Zm-1.45,44.79h-37.52v33.4h37.15c22.96,0,22.71-33.4,.37-33.4Z"/>
            <path class="cls-3" d="M703.39,45.48l-72.52,61.71h77.64c1.67,0,3.02,1.35,3.02,3.02v19.38c0,1.67-1.35,3.02-3.02,3.02h-81.45c-10.18,0-19.03-6.18-22.55-15.73-3.51-9.55-.78-19.99,6.98-26.59l72.52-61.71h-68.61c-1.67,0-3.02-1.35-3.02-3.02V6.18c0-1.67,1.35-3.02,3.02-3.02h72.41c10.18,0,19.03,6.17,22.54,15.73,3.51,9.56,.78,19.99-6.98,26.59Z"/>
          </g>
        </g>
        <g>
          <path class="cls-1" d="M888.11,98.76c.32,16.46,.64,32.91,.95,49.37,.08,4.03,5.55,5.2,7.25,1.55,7.16-15.29,14.65-30.41,22.53-45.36,1.26-2.38-.27-5.27-2.95-5.56-7.82-.86-15.49-2.13-23.19-3.8-2.4-.52-4.65,1.34-4.6,3.8Z"/>
          <polygon class="cls-1" points="824.76 4.85 750.19 45.9 862.05 73.63 926 28 824.76 4.85"/>
          <polygon class="cls-1" points="747.18 58.36 856.25 84.84 859.43 212.97 758.23 169.09 747.18 58.36"/>
          <g>
            <path class="cls-2" d="M767.45,154.68c-2.32-23.15-4.64-46.3-6.95-69.45-.16-1.58,.38-2.69,1.2-2.49,1.9,.47,2.86,.7,4.76,1.17,.82,.2,1.6,1.66,1.75,3.27,2.16,23.52,4.32,47.04,6.49,70.57,.15,1.6-.35,2.64-1.11,2.31-1.79-.77-2.68-1.15-4.46-1.92-.76-.33-1.51-1.87-1.67-3.45Z"/>
            <path class="cls-2" d="M785.45,162.96c-.76-.33-1.49-1.9-1.63-3.52-1.34-15.41-2.68-30.82-3.99-46.23,0-.05,0-.07,0-.12-.5-8.13,.5-14.71,3.03-19.71,5.11-10.08,14.72-8.08,21.45,5.21,3.71,7.33,5.9,16.26,6.41,25.64,.87,15.89,1.74,31.78,2.6,47.66,.09,1.72-.45,2.85-1.21,2.52-1.74-.75-2.62-1.12-4.36-1.87-.76-.33-1.47-1.97-1.57-3.66-.83-13.29-1.65-26.58-2.48-39.87-.43-7.54-.39-13.75-4-20.6-3.42-6.49-8.1-7.57-10.69-2.65-1.3,2.47-1.85,5.65-1.7,9.73,0,.1,0,.2,.02,.3,1.23,15.56,2.45,31.12,3.68,46.68,.13,1.64-.38,2.71-1.15,2.38-1.76-.76-2.64-1.13-4.4-1.89Z"/>
            <path class="cls-2" d="M835.05,182.87c-3.32-1.43-6.69-5.43-9.53-11.24-2.77-5.67-4.97-12.87-6.15-20.32-1.06-6.7-1.14-13.45-1.48-20.01-.35-6.69-.8-14.5,1.66-22.5,1.69-5.49,4.4-9.31,7.62-10.72,1.51-.66,3.11-.79,4.73-.39,4.81,1.18,7.22,1.77,12.03,2.95,.82,.2,1.52,1.84,1.57,3.67,.11,4.24,.16,6.36,.27,10.6,.05,1.83-.57,3.12-1.38,2.9-4.74-1.32-7.12-1.99-11.86-3.31-4.18-1.17-7.17,4.57-7.38,12.72-.06,1.84,.77,19.51,.92,20.84,.96,8.84,4.42,16.48,8.36,18.03,4.54,1.78,6.81,2.66,11.35,4.44,.77,.3,1.44,2.03,1.48,3.85,.11,4.24,.16,6.36,.26,10.6,.05,1.83-.53,3.04-1.3,2.71-4.47-1.92-6.71-2.89-11.18-4.81Z"/>
          </g>
        </g>
      </g>
      <g>
        <path class="cls-3" d="M4.96,171.57v40.89H0v-40.89H4.96Z"/>
        <path class="cls-3" d="M27.01,212.46v-30.98h4.34l.43,6.94-.81-.68c.66-1.65,1.55-2.98,2.66-4,1.12-1.01,2.41-1.75,3.87-2.2,1.47-.45,2.98-.68,4.55-.68,2.23,0,4.25,.42,6.07,1.27,1.82,.85,3.27,2.14,4.37,3.87,1.09,1.73,1.64,3.94,1.64,6.63v19.83h-4.96v-18.09c0-3.43-.73-5.81-2.2-7.16-1.47-1.34-3.27-2.01-5.42-2.01-1.49,0-2.97,.35-4.46,1.05-1.49,.7-2.72,1.84-3.68,3.41-.97,1.57-1.46,3.68-1.46,6.32v16.48h-4.96Z"/>
        <path class="cls-3" d="M97.64,225.47v-21.5l.87,.62c-.29,1.82-.98,3.36-2.08,4.62-1.09,1.26-2.44,2.22-4.03,2.88-1.59,.66-3.27,.99-5.05,.99-2.56,0-4.91-.64-7.06-1.92-2.15-1.28-3.86-3.13-5.14-5.54-1.28-2.42-1.92-5.3-1.92-8.64s.68-6.34,2.04-8.74c1.36-2.39,3.16-4.22,5.39-5.48s4.63-1.89,7.19-1.89c1.74,0,3.35,.32,4.83,.96,1.49,.64,2.76,1.55,3.81,2.73,1.05,1.18,1.74,2.57,2.07,4.18h-.74l.43-7.25h4.34v43.98h-4.96Zm-9.79-16.73c1.94,0,3.64-.49,5.11-1.46,1.47-.97,2.61-2.35,3.44-4.15,.83-1.8,1.24-3.91,1.24-6.35s-.4-4.57-1.21-6.29c-.81-1.71-1.93-3.02-3.37-3.93-1.45-.91-3.14-1.36-5.08-1.36-3.06,0-5.45,1.07-7.19,3.22-1.73,2.15-2.6,5-2.6,8.55s.85,6.4,2.54,8.55,4.07,3.22,7.12,3.22Z"/>
        <path class="cls-3" d="M135.24,213.08c-1.98,0-3.85-.37-5.61-1.11-1.76-.74-3.18-1.95-4.27-3.62-1.09-1.67-1.64-3.85-1.64-6.54v-20.32h4.96v19.02c0,3.14,.68,5.3,2.04,6.47,1.36,1.18,3.28,1.77,5.76,1.77,1.16,0,2.29-.2,3.41-.59,1.11-.39,2.11-1.01,3-1.86,.89-.85,1.59-1.93,2.11-3.25,.52-1.32,.77-2.89,.77-4.71v-16.85h4.96v30.98h-4.34l-.31-4.71c-1.07,1.86-2.53,3.21-4.37,4.06-1.84,.85-4,1.27-6.48,1.27Z"/>
        <path class="cls-3" d="M174.64,175.54c-1.12,0-2.01-.34-2.7-1.02-.68-.68-1.02-1.58-1.02-2.7s.34-2.01,1.02-2.7,1.58-1.02,2.7-1.02,2.01,.34,2.7,1.02,1.02,1.58,1.02,2.7-.34,2.01-1.02,2.7c-.68,.68-1.58,1.02-2.7,1.02Zm2.48,5.95v30.98h-4.96v-30.98h4.96Z"/>
        <path class="cls-3" d="M209.71,213.08c-3.01,0-5.79-.64-8.33-1.92-2.54-1.28-4.49-3.1-5.85-5.45l4.21-3.04c.91,1.9,2.24,3.39,4,4.46,1.75,1.07,3.87,1.61,6.35,1.61,2.19,0,3.9-.42,5.14-1.27s1.86-1.95,1.86-3.32c0-.87-.28-1.66-.84-2.38-.56-.72-1.62-1.25-3.19-1.58l-7.43-1.55c-3.02-.62-5.17-1.65-6.48-3.1-1.3-1.44-1.95-3.24-1.95-5.39,0-1.69,.49-3.24,1.46-4.65,.97-1.4,2.35-2.53,4.15-3.38,1.8-.85,3.91-1.27,6.35-1.27,3.05,0,5.64,.6,7.74,1.8,2.11,1.2,3.68,2.89,4.71,5.08l-4.15,2.73c-.7-1.82-1.84-3.15-3.41-4s-3.2-1.27-4.89-1.27c-1.49,0-2.76,.21-3.81,.62s-1.86,.98-2.42,1.7c-.56,.72-.84,1.54-.84,2.45s.31,1.75,.93,2.51c.62,.77,1.77,1.31,3.47,1.64l7.74,1.61c2.89,.58,4.91,1.53,6.07,2.85,1.16,1.32,1.73,2.93,1.73,4.83s-.52,3.64-1.55,5.11c-1.03,1.47-2.48,2.59-4.34,3.38-1.86,.78-4.01,1.18-6.44,1.18Z"/>
        <path class="cls-3" d="M243.59,175.54c-1.12,0-2.01-.34-2.7-1.02s-1.02-1.58-1.02-2.7,.34-2.01,1.02-2.7,1.58-1.02,2.7-1.02,2.01,.34,2.7,1.02,1.02,1.58,1.02,2.7-.34,2.01-1.02,2.7-1.58,1.02-2.7,1.02Zm2.48,5.95v30.98h-4.96v-30.98h4.96Z"/>
        <path class="cls-3" d="M286.09,181.48v4.27h-22.43v-4.27h22.43Zm-11.28-8.8v31.22c0,1.53,.43,2.66,1.3,3.41,.87,.74,1.98,1.12,3.35,1.12,1.2,0,2.23-.21,3.1-.62,.87-.41,1.65-.97,2.35-1.67l1.74,4.15c-.95,.87-2.08,1.55-3.38,2.04-1.3,.49-2.8,.74-4.49,.74-1.57,0-3.04-.28-4.4-.84s-2.45-1.44-3.25-2.66c-.81-1.22-1.23-2.82-1.27-4.8v-30.73l4.96-1.36Z"/>
        <path class="cls-3" d="M305.85,175.54c-1.12,0-2.01-.34-2.7-1.02-.68-.68-1.02-1.58-1.02-2.7s.34-2.01,1.02-2.7,1.58-1.02,2.7-1.02,2.01,.34,2.7,1.02,1.02,1.58,1.02,2.7-.34,2.01-1.02,2.7-1.58,1.02-2.7,1.02Zm2.48,5.95v30.98h-4.96v-30.98h4.96Z"/>
        <path class="cls-3" d="M350.27,181.48h5.2l-12.89,30.98h-4.96l-12.89-30.98h5.64l9.79,25.96,10.1-25.96Z"/>
        <path class="cls-3" d="M384.84,213.08c-2.93,0-5.54-.64-7.84-1.92-2.29-1.28-4.08-3.13-5.36-5.54-1.28-2.42-1.92-5.3-1.92-8.64s.64-6.23,1.92-8.64c1.28-2.42,3.04-4.26,5.26-5.54,2.23-1.28,4.77-1.92,7.62-1.92s5.36,.62,7.4,1.86c2.04,1.24,3.6,2.92,4.68,5.05,1.07,2.13,1.61,4.51,1.61,7.16,0,.7-.02,1.34-.06,1.92-.04,.58-.1,1.09-.19,1.55h-25.03v-4.4h22.86l-2.54,.5c0-2.97-.81-5.27-2.45-6.88-1.63-1.61-3.77-2.42-6.41-2.42-2.03,0-3.77,.46-5.23,1.39-1.47,.93-2.6,2.27-3.41,4.03-.81,1.75-1.21,3.87-1.21,6.35s.41,4.54,1.24,6.32c.82,1.78,1.99,3.13,3.5,4.06,1.51,.93,3.31,1.39,5.42,1.39,2.27,0,4.12-.43,5.54-1.3,1.42-.87,2.57-2.05,3.44-3.53l3.9,2.29c-.79,1.4-1.79,2.62-3.01,3.65-1.22,1.03-2.64,1.83-4.27,2.38s-3.46,.84-5.48,.84Z"/>
        <path class="cls-3" d="M462.65,170.95c3.59,0,6.69,.73,9.29,2.2,2.6,1.47,4.77,3.62,6.51,6.47l-4.15,3.22c-1.53-2.64-3.25-4.51-5.17-5.61s-4.24-1.64-6.97-1.64c-2.19,0-4,.31-5.42,.93-1.42,.62-2.47,1.44-3.13,2.45-.66,1.01-.99,2.16-.99,3.44,0,1.45,.45,2.72,1.36,3.81,.91,1.09,2.73,1.95,5.45,2.57l8.86,1.98c3.92,.87,6.66,2.18,8.21,3.93,1.55,1.75,2.32,3.93,2.32,6.54,0,2.31-.65,4.37-1.95,6.16-1.3,1.8-3.13,3.19-5.48,4.18-2.35,.99-5.12,1.49-8.3,1.49-2.97,0-5.59-.4-7.84-1.21-2.25-.81-4.18-1.89-5.79-3.25-1.61-1.36-2.93-2.89-3.96-4.59l4.34-3.53c.78,1.57,1.8,2.95,3.04,4.15s2.74,2.13,4.49,2.79c1.75,.66,3.77,.99,6.04,.99,2.11,0,3.93-.26,5.48-.77,1.55-.52,2.74-1.28,3.56-2.29,.83-1.01,1.24-2.24,1.24-3.68,0-1.32-.43-2.51-1.3-3.56-.87-1.05-2.5-1.85-4.9-2.38l-9.6-2.17c-2.52-.58-4.55-1.37-6.1-2.39-1.55-1.01-2.66-2.21-3.34-3.59-.68-1.38-1.02-2.88-1.02-4.49,0-2.19,.61-4.2,1.83-6.04,1.22-1.84,2.97-3.31,5.26-4.43,2.29-1.12,5.01-1.67,8.15-1.67Z"/>
        <path class="cls-3" d="M516.8,181.48v4.27h-22.43v-4.27h22.43Zm-11.28-8.8v31.22c0,1.53,.43,2.66,1.3,3.41,.87,.74,1.98,1.12,3.35,1.12,1.2,0,2.23-.21,3.1-.62,.87-.41,1.65-.97,2.35-1.67l1.74,4.15c-.95,.87-2.08,1.55-3.38,2.04-1.3,.49-2.8,.74-4.49,.74-1.57,0-3.04-.28-4.4-.84s-2.45-1.44-3.25-2.66c-.81-1.22-1.23-2.82-1.27-4.8v-30.73l4.96-1.36Z"/>
        <path class="cls-3" d="M546.91,180.86c2.93,0,5.52,.64,7.78,1.92,2.25,1.28,4.02,3.13,5.3,5.54,1.28,2.42,1.92,5.3,1.92,8.64s-.64,6.23-1.92,8.64c-1.28,2.42-3.05,4.27-5.3,5.54-2.25,1.28-4.84,1.92-7.78,1.92s-5.47-.64-7.74-1.92c-2.27-1.28-4.05-3.13-5.33-5.54-1.28-2.42-1.92-5.3-1.92-8.64s.64-6.23,1.92-8.64c1.28-2.42,3.05-4.26,5.33-5.54,2.27-1.28,4.85-1.92,7.74-1.92Zm0,4.27c-2.11,0-3.9,.48-5.39,1.43s-2.63,2.3-3.44,4.06c-.81,1.75-1.21,3.87-1.21,6.35s.4,4.54,1.21,6.32c.81,1.78,1.95,3.14,3.44,4.09s3.28,1.43,5.39,1.43,3.9-.48,5.39-1.43c1.49-.95,2.63-2.31,3.44-4.09,.81-1.78,1.21-3.88,1.21-6.32s-.4-4.59-1.21-6.35c-.81-1.75-1.95-3.11-3.44-4.06-1.49-.95-3.28-1.43-5.39-1.43Z"/>
        <path class="cls-3" d="M581.16,212.46v-30.98h4.03l.68,5.08c.87-1.9,2.14-3.33,3.81-4.27,1.67-.95,3.71-1.43,6.1-1.43,.53,0,1.12,.04,1.76,.12,.64,.08,1.19,.25,1.64,.5l-.87,4.52c-.45-.17-.95-.29-1.49-.37-.54-.08-1.3-.12-2.29-.12-1.28,0-2.57,.37-3.87,1.12-1.3,.74-2.38,1.87-3.25,3.38-.87,1.51-1.3,3.42-1.3,5.73v16.73h-4.96Z"/>
        <path class="cls-3" d="M618.83,175.54c-1.12,0-2.01-.34-2.7-1.02s-1.02-1.58-1.02-2.7,.34-2.01,1.02-2.7,1.58-1.02,2.7-1.02,2.01,.34,2.7,1.02,1.02,1.58,1.02,2.7-.34,2.01-1.02,2.7-1.58,1.02-2.7,1.02Zm2.48,5.95v30.98h-4.96v-30.98h4.96Z"/>
        <path class="cls-3" d="M655.69,213.08c-2.93,0-5.54-.64-7.84-1.92-2.29-1.28-4.08-3.13-5.36-5.54-1.28-2.42-1.92-5.3-1.92-8.64s.64-6.23,1.92-8.64c1.28-2.42,3.04-4.26,5.26-5.54,2.23-1.28,4.77-1.92,7.62-1.92s5.36,.62,7.4,1.86c2.04,1.24,3.6,2.92,4.68,5.05,1.07,2.13,1.61,4.51,1.61,7.16,0,.7-.02,1.34-.06,1.92-.04,.58-.1,1.09-.19,1.55h-25.03v-4.4h22.86l-2.54,.5c0-2.97-.81-5.27-2.45-6.88-1.63-1.61-3.77-2.42-6.41-2.42-2.03,0-3.77,.46-5.23,1.39-1.47,.93-2.6,2.27-3.41,4.03s-1.21,3.87-1.21,6.35,.41,4.54,1.24,6.32c.82,1.78,1.99,3.13,3.5,4.06,1.51,.93,3.31,1.39,5.42,1.39,2.27,0,4.12-.43,5.54-1.3,1.42-.87,2.57-2.05,3.44-3.53l3.9,2.29c-.79,1.4-1.79,2.62-3.01,3.65-1.22,1.03-2.64,1.83-4.27,2.38s-3.46,.84-5.48,.84Z"/>
        <path class="cls-3" d="M699.55,213.08c-3.01,0-5.79-.64-8.33-1.92-2.54-1.28-4.49-3.1-5.85-5.45l4.21-3.04c.91,1.9,2.24,3.39,4,4.46,1.75,1.07,3.87,1.61,6.35,1.61,2.19,0,3.9-.42,5.14-1.27s1.86-1.95,1.86-3.32c0-.87-.28-1.66-.84-2.38-.56-.72-1.62-1.25-3.19-1.58l-7.43-1.55c-3.02-.62-5.17-1.65-6.48-3.1-1.3-1.44-1.95-3.24-1.95-5.39,0-1.69,.49-3.24,1.46-4.65,.97-1.4,2.35-2.53,4.15-3.38,1.8-.85,3.91-1.27,6.35-1.27,3.05,0,5.64,.6,7.74,1.8,2.11,1.2,3.68,2.89,4.71,5.08l-4.15,2.73c-.7-1.82-1.84-3.15-3.41-4-1.57-.85-3.2-1.27-4.89-1.27-1.49,0-2.76,.21-3.81,.62s-1.86,.98-2.42,1.7c-.56,.72-.84,1.54-.84,2.45s.31,1.75,.93,2.51c.62,.77,1.77,1.31,3.47,1.64l7.74,1.61c2.89,.58,4.91,1.53,6.07,2.85,1.16,1.32,1.73,2.93,1.73,4.83s-.52,3.64-1.55,5.11c-1.03,1.47-2.48,2.59-4.34,3.38-1.86,.78-4.01,1.18-6.44,1.18Z"/>
      </g>
    </g>
  </g>
</svg>